<?xml version='1.0' encoding='UTF-8' ?>
<svg viewBox="0 0 32 32" xmlns="http://www.w3.org/2000/svg">
	<g fill="var(--om-tint-color)" id="omTheme">
		<g id="background">
			<rect height="32" style="fill: none" width="32"/>
		</g>
		<g id="jsoncontrols">
			<rect height="18" id="button" rx="3" style="fill: none;stroke: var(--om-tint-color);stroke-width: 2px" width="28" x="2" y="7"/>
			<g id="json">
				<path d="M950.93,536.86h1.84v3.41a5.71,5.71,0,0,1-.18,1.64,1.85,1.85,0,0,1-.73,1,2.31,2.31,0,0,1-1.39.39,3.07,3.07,0,0,1-1.39-.26,1.77,1.77,0,0,1-.76-.75A2.92,2.92,0,0,1,948,541l1.75-.26a2.24,2.24,0,0,0,.07.62.69.69,0,0,0,.22.33.51.51,0,0,0,.3.08.5.5,0,0,0,.45-.24,1.8,1.8,0,0,0,.14-.82Z" style="fill: var(--om-tint-color)" transform="translate(-944 -524)"/>
				<path d="M953.49,541.06l1.74-.11a1.39,1.39,0,0,0,.23.68.94.94,0,0,0,.81.39.85.85,0,0,0,.6-.2.6.6,0,0,0,.21-.45.58.58,0,0,0-.2-.44,2.18,2.18,0,0,0-.93-.36,3.79,3.79,0,0,1-1.72-.77,1.55,1.55,0,0,1-.52-1.21,1.81,1.81,0,0,1,.26-.92,1.84,1.84,0,0,1,.8-.67,3.42,3.42,0,0,1,1.46-.25,2.85,2.85,0,0,1,1.73.45,2,2,0,0,1,.71,1.42l-1.73.11a1,1,0,0,0-.29-.62.86.86,0,0,0-.6-.19.75.75,0,0,0-.49.14.5.5,0,0,0-.16.35.36.36,0,0,0,.14.27,1.4,1.4,0,0,0,.61.24,7.21,7.21,0,0,1,1.72.55,1.86,1.86,0,0,1,.76.7,1.81,1.81,0,0,1,.23.93,2.06,2.06,0,0,1-1.19,1.89,3.51,3.51,0,0,1-1.43.26,2.8,2.8,0,0,1-2.09-.62A2.47,2.47,0,0,1,953.49,541.06Z" style="fill: var(--om-tint-color)" transform="translate(-944 -524)"/>
				<path d="M959.37,540a3.34,3.34,0,0,1,.81-2.39,3,3,0,0,1,2.25-.86,3,3,0,0,1,2.28.84,3.26,3.26,0,0,1,.8,2.36,4,4,0,0,1-.35,1.81,2.56,2.56,0,0,1-1,1.1,3.19,3.19,0,0,1-1.64.39,3.53,3.53,0,0,1-1.66-.34,2.51,2.51,0,0,1-1.07-1.07A3.77,3.77,0,0,1,959.37,540Zm1.83,0a2.22,2.22,0,0,0,.34,1.37,1.08,1.08,0,0,0,.9.42,1.12,1.12,0,0,0,.92-.41,2.48,2.48,0,0,0,.32-1.46,2.07,2.07,0,0,0-.33-1.3,1.16,1.16,0,0,0-.92-.41,1.08,1.08,0,0,0-.89.42A2.2,2.2,0,0,0,961.2,540Z" style="fill: var(--om-tint-color)" transform="translate(-944 -524)"/>
				<path d="M966.33,536.86H968l2.23,3.48v-3.48H972v6.28h-1.73l-2.22-3.45v3.45h-1.72Z" style="fill: var(--om-tint-color)" transform="translate(-944 -524)"/>
			</g>
		</g>
	</g>
</svg>